<svg xmlns:dc="http://purl.org/dc/elements/1.1/" xmlns:cc="http://creativecommons.org/ns#" xmlns:rdf="http://www.w3.org/1999/02/22-rdf-syntax-ns#" xmlns:svg="http://www.w3.org/2000/svg" xmlns="http://www.w3.org/2000/svg" xmlns:sodipodi="http://sodipodi.sourceforge.net/DTD/sodipodi-0.dtd" xmlns:inkscape="http://www.inkscape.org/namespaces/inkscape" width="371" height="371" version="1.1" inkscape:version="0.92.3 (2405546, 2018-03-11)" sodipodi:docname="Means.svg" style=""><rect id="backgroundrect" width="100%" height="100%" x="0" y="0" fill="none" stroke="none"/>
  <defs id="defs2"/>
  <sodipodi:namedview id="base" pagecolor="#ffffff" bordercolor="#666666" borderopacity="1.0" inkscape:pageopacity="0.0" inkscape:pageshadow="2" inkscape:zoom="0.49497475" inkscape:cx="154.34643" inkscape:cy="728.97484" inkscape:document-units="mm" inkscape:current-layer="layer1" showgrid="false" inkscape:window-width="1366" inkscape:window-height="705" inkscape:window-x="-8" inkscape:window-y="-8" inkscape:window-maximized="1"/>
  <metadata id="metadata5">
    <rdf:RDF>
      <cc:Work rdf:about="">
        <dc:format>image/svg+xml</dc:format>
        <dc:type rdf:resource="http://purl.org/dc/dcmitype/StillImage"/>
        <dc:title/>
      </cc:Work>
    </rdf:RDF>
  </metadata>
  
<g class="currentLayer" style=""><title>Layer 1</title><g inkscape:label="Layer 1" inkscape:groupmode="layer" id="layer1" class="">
    <g id="g3724">
      <path style="fill:#7496c6;stroke-width:0.26458335" d="m116.96142540619809,235.2139902102383 c-22.28193870950486,-11.31220434139913 -20.758285829990047,-50.21706820542813 2.3430327029541678,-59.82691846085407 c12.460364937559717,-5.1833220894759515 27.84745851984757,-1.3618091701568071 34.359825920366134,8.533506025580854 c3.0187632005184692,4.5869516820498895 5.623572471721343,19.11268975126712 3.919584209488036,21.857673194186802 c-0.5490194001320976,0.8843670506477637 -10.568828125387476,1.8149222421895743 -22.266259529166703,2.0678455377805 l-21.26805766161744,0.4600289433965817 l-0.520799356406375,4.5085306406923475 c-0.3726286213277955,3.2261304935164814 0.818375065838569,5.841750092621957 4.187296290230263,9.195824206369005 c6.338321056116089,6.310423875223306 15.631392330048847,7.776156362391715 27.50813575232354,4.338659550318657 c9.91110883814834,-2.8685428946964002 12.311853081073464,-2.393138487285626 12.311853081073464,2.4379064045960313 c0,5.347821029772392 -7.38321314106474,8.610445094503289 -21.061114809100413,9.306972139001735 c-10.472166722867609,0.5335100766371096 -13.740965713003398,0.049399081170102756 -19.513527611181736,-2.8797811856626 zm29.556619423062692,-38.02160829270757 c1.7424729592262986,-4.5208186621334105 -3.3112965153245084,-12.178293732013953 -9.346050529648172,-14.161172850181877 c-7.924275109086925,-2.603763819624651 -14.77871285501314,-0.8385494028624938 -19.79608157426147,5.097985176754599 c-8.037639056167974,9.510125860313783 -6.0578200236898105,11.190929597126527 13.181576222078023,11.190929597126527 c10.923240863545502,0 15.368871496910673,-0.5927889740412325 15.960555881831615,-2.127741923699249 zm34.15022852307666,39.27196078597433 c-10.923110617189845,-5.5888267970310315 -14.413700544387586,-21.562884177304216 -6.563988372810693,-30.038840273321895 c5.346005083401057,-5.772467881280888 12.118431040715132,-8.393891872423852 25.108687770747576,-9.718960475960392 c11.709972267166787,-1.1944080338416212 13.262471613355961,-2.1485512866421543 11.662444751766738,-7.167621431227514 c-1.5942960219403073,-5.001039479958272 -11.646362427946782,-7.283709271977254 -23.186270167869758,-5.265262815366859 c-10.560808671203441,1.8472168915045284 -12.658500655551357,1.011754931215166 -11.830747852105471,-4.711807859707321 c0.665199149378307,-4.599671945451188 4.945782841296174,-5.99618397012999 19.063148117734013,-6.219220821613004 c12.074643456384669,-0.19080395101952174 19.73452466569492,2.5642445546885684 24.7382981462956,8.897515504953049 c3.3955907162643553,4.297781810650397 3.5732963630400536,5.9463526469996495 3.147272938100226,29.197388674440663 c-0.4458766908664315,24.333863886689663 -0.49890556424114246,24.64915352225784 -4.234091945155667,25.176303467194302 c-2.0804312411196335,0.29392453296211146 -4.841281848607226,-0.3408536600737091 -6.135260785439125,-1.4100967720005817 c-1.8378567070192442,-1.5185277551689573 -3.800377783024651,-1.3671813202340553 -8.96837951369422,0.691525387529976 c-7.8567020593304955,3.129740536383319 -17.33412154417747,3.3663003863366483 -22.801113087569224,0.5693244104854345 zm24.13375658540907,-10.998705422523367 l7.061436418309957,-3.190624903925471 l-0.4974170344622032,-8.618348947490505 l-0.4974170344622032,-8.618287198639043 l-9.025508046168426,0.5489472895027664 c-4.9640235332955935,0.3019518836522534 -11.240849702919254,1.8136872651603209 -13.948503977432006,3.3591375195669837 c-4.150895534927786,2.3691181840666626 -4.923002133470992,3.812806331262914 -4.923002133470992,9.2050865340884 c0,5.18140787508061 0.7786871406076005,6.787495501623573 4.102499710490023,8.461630362478354 c5.624961766181686,2.833222551659777 9.467818467772815,2.5844364291168485 17.727949310440327,-1.1478493998387993 zm113.55214066055899,10.930596439360086 c-4.851552704081907,-1.6471506127656126 -5.8259815106200215,-2.8090787507378905 -6.274401106525473,-7.481676089766441 c-0.5879692626810087,-6.125733060498585 -1.4860488959743618,-6.064169455590344 13.225587085875329,-0.9056086555509085 c9.93159472923099,3.482449975937853 18.311521208066047,2.113354441308456 22.076013019003437,-3.6066886650806613 c4.6972417836652065,-7.1372409963078995 0.4583431277650473,-10.349601495948217 -20.1922785837558,-15.301674136696622 c-14.575621573299117,-3.4952319881906173 -20.105757790354957,-17.030827224204607 -11.242741376179989,-27.517511170399857 c5.42779979475377,-6.422127547519201 13.715499449368714,-9.021445449838543 25.40083034648664,-7.966528071450999 c12.543468314676412,1.1324121869731418 16.39100768286379,3.344379544067415 16.39100768286379,9.423368724008789 c0,5.72788521052487 -0.7139360952237431,5.8420588368792705 -10.077098515122305,1.6121390139863019 c-8.653753936085756,-3.909381534950465 -13.160649974269102,-4.0964188060307665 -19.54241129110057,-0.8107624197043105 c-3.363705167957994,1.7317465392694138 -4.8415051280740675,3.714996150546111 -4.8415051280740675,6.497399397452145 c0,5.136392962364354 4.8185569606487535,8.16572986626944 16.83663628543373,10.584864620020829 c16.592517401687694,3.3398718779106433 23.726792543847075,13.019992326301043 18.599675764439038,25.236940839330604 c-4.454363341401615,10.613824831356803 -24.36934123175586,15.664572136742489 -40.359314183343756,10.23573661385113 zm-308.508166775955,-41.16048765910735 v-41.661209095617814 h7.372762421575105 h7.372762421575105 l10.689988247185719,21.23901145138273 c5.879494156172887,11.681462473145647 11.286200243517603,21.23907320023419 12.01490999679732,21.23907320023419 c0.7287035510723032,0 5.2539147077440145,-8.638602570770246 10.056017212128078,-19.196853435810684 c4.8021087065914765,-10.558250865040437 9.460177348240926,-20.115799843277518 10.351273295988092,-21.23901145138273 c0.8910959477471639,-1.1232116081052104 4.852780741149532,-2.042219764423508 8.803748120143538,-2.042219764423508 h7.183570286671925 v41.76470017066917 v41.76470017066917 l-5.333253344961476,-0.5118979786251899 l-5.333253344961476,-0.5118979786251899 l-0.4456906246440639,-31.450110273500268 c-0.24511123693199843,-17.29758226252316 -1.0400977786189838,-31.450110273500268 -1.7666057482673516,-31.450110273500268 c-0.7265141718557795,0 -5.695108732014198,9.006193483527273 -11.041324690467272,20.013728991809796 c-13.319203204555786,27.423405920770808 -13.93651511050413,27.432236006529966 -26.835258270168875,0.3840778560975489 c-5.7367503525800245,-12.029911241949259 -10.559822520224893,-20.22231661205055 -11.547524050625215,-19.614584415955363 c-1.0709041428356143,0.658921993957708 -1.6961238632345783,12.450606166964144 -1.6961238632345783,31.9888690025117 v30.94525166394182 h-4.923002133470992 h-4.923002133470992 zm233.79301469161118,39.670981864125835 c-0.4682666596246429,-1.2149704013786764 -0.6487074798691427,-15.049183083065934 -0.4009106871276416,-30.742653682292932 c0.4483575738313302,-28.39749405259377 0.46857676999525544,-28.536181972978838 4.233093389762294,-29.06746909096329 c2.080425038912221,-0.29392453296211146 4.841275646399815,0.3408536600737091 6.135254583231713,1.4100967720005817 c1.8378567070192442,1.5185277551689573 3.8003591764024147,1.3672430690855177 8.968348502657157,-0.6914636386785136 c12.901211638214814,-5.1392951583830975 25.485490477663813,-2.186341583737283 30.316017698618207,7.113714683900638 c1.9015967925949055,3.660965905516311 2.4893179669794234,10.597955376530907 2.4893179669794234,29.3802270236215 v24.587713415052526 h-4.923002133470992 h-4.923002133470992 l-0.03721324447348153,-18.379916130960112 c-0.0434154518857285,-18.95782363179885 -1.6169154723727728,-29.668532411100514 -4.839024245109168,-32.87521201640627 c-3.02097118635723,-3.006428080012451 -16.11538158546354,-1.9152641258163432 -21.060959753915107,1.7550876051222857 c-4.3475489253478985,3.22656273547672 -4.4326494132513385,3.64849263752086 -5.239823292503389,25.981508490266968 l-0.8205024229809693,22.701656495978003 l-4.522091446343351,0.5180728637714517 c-2.689847737032191,0.30812676879851597 -4.867058222612525,-0.3772854824366597 -5.373505671066958,-1.6911157950070042 z" id="path3728" inkscape:connector-curvature="0" stroke-width="0"/>
      <path style="fill:#4641da;stroke-width:0.26458335" d="M-4.445915351425356e-7,185.4331158915423 V-3.0126688699283477e-7 h185.43308242814314 h185.43307002372833 v185.43311619280914 v185.43303591930226 H185.43308198355172 H-4.445915351425356e-7 zm153.29520971762932,49.253600876056744 c4.229254223374114,-2.7588769344987742 5.662230830521877,-8.158813994905623 2.6559836845613227,-10.00856258932012 c-0.8716768363394201,-0.5365975192102405 -5.698817652046722,0.21550349160457316 -10.726978212192359,1.6707386740243368 c-11.876743422274695,3.437496812073059 -21.16981469620745,1.9717643249046493 -27.50813575232354,-4.338659550318657 c-3.3689212243916935,-3.3540741137470476 -4.559937315972881,-5.969693712852525 -4.187296290230263,-9.195824206369005 l0.520799356406375,-4.5085306406923475 l21.26805766161744,-0.4600289433965817 c11.697431403779223,-0.2531702909967764 21.717246331242013,-1.1834784871327357 22.266259529166703,-2.0678455377805 c1.703988262233306,-2.7449834429196818 -0.9008210089695675,-17.270721512136916 -3.919584209488036,-21.857673194186802 c-6.5123674005185626,-9.895315195737659 -21.899460982806417,-13.716828115056803 -34.359825920366134,-8.533506025580854 c-23.101318532944212,9.609850255425929 -24.624971412459026,48.514714119454936 -2.3430327029541678,59.82691846085407 c5.772561898178338,2.930662239267806 9.041360888314129,3.4130442668938583 19.513527611181736,2.8797811856626 c8.12816647555713,-0.4137173047996105 14.080034190023525,-1.6194871273103546 16.820256255657988,-3.407054628301983 zm-38.97215948455768,-36.455780917318236 c-3.5737057087292636,-3.557907072425185 4.599265513173939,-14.43966017027833 12.0726835588424,-16.07384352423679 c7.630761845509751,-1.6686392130746073 16.319992407993563,1.9623784994823301 18.810991173181705,7.8606287911925925 c3.551315739971051,8.40889684332927 2.144227146562005,9.3024027239935 -14.649235573075075,9.3024027239935 c-8.32723872686802,0 -15.632738209057306,-0.4902858806132696 -16.234439158949026,-1.089187990949302 zm89.14633665142654,37.6643294381448 c5.16800173066957,-2.05870670776403 7.130522806674976,-2.2100531426989325 8.96837951369422,-0.691525387529976 c1.2939789368318997,1.0691813630754103 4.054829544319493,1.7037743095568425 6.135260785439125,1.4100967720005817 c3.735198785329348,-0.5273351914908465 3.788233860911472,-0.8424395805046391 4.234091945155667,-25.176303467194302 c0.42602962714724174,-23.25103602744101 0.24833638478636702,-24.899606863790265 -3.147272938100226,-29.197388674440663 c-5.003773480600684,-6.333270950264478 -12.663654689910933,-9.088257707121109 -24.7382981462956,-8.897515504953049 c-14.117365276437841,0.2229133537800887 -18.397948968355706,1.6195488761618178 -19.063148117734013,6.219220821613004 c-0.8277528034458872,5.723562790922486 1.2699391809020304,6.559024751211849 11.830747852105471,4.711807859707321 c11.539907739922977,-2.0184464566103966 21.591974145929452,0.26428508426004976 23.186270167869758,5.265262815366859 c1.6000268615892237,5.01907014458536 0.04775699707430134,5.9732133973858925 -11.662444751766738,7.167621431227514 c-19.88433278353033,2.028264523992955 -28.936138189126684,8.61161832268108 -29.2111874812376,21.24518633652899 c-0.3620848687269757,16.632608881122117 15.461538677857055,25.116407081275554 33.46760117086994,17.943536997673718 zm-16.395305812600476,-9.281778607604982 c-3.3238125698824224,-1.6741348608547808 -4.102499710490023,-3.280222487397744 -4.102499710490023,-8.461630362478354 c0,-5.392280202825485 0.7721065985432065,-6.835968350021736 4.923002133470992,-9.2050865340884 c2.707654274512752,-1.5454502544066626 8.984480444136409,-3.0570003893603435 13.948503977432006,-3.3591375195669837 l9.025508046168426,-0.5489472895027664 l0.4974170344622032,8.618287198639043 l0.4974170344622032,8.618348947490505 l-7.061436418309957,3.190624903925471 c-8.26013084266751,3.7322858289556464 -12.102987544258637,3.9810719514985777 -17.727949310440327,1.1478493998387993 zm162.1105807744634,8.666080809671115 c5.1525458297982505,-2.3282404443984026 7.7033276722330415,-4.769296040419027 9.528823379879675,-9.119070384000958 c5.127116779408038,-12.216948513029559 -2.007158362751348,-21.897068961419958 -18.599675764439038,-25.236940839330604 c-12.018079324784978,-2.4191347537513925 -16.83663628543373,-5.4484716576564765 -16.83663628543373,-10.584864620020829 c0,-2.7824032469060342 1.4777999601160736,-4.765652858182732 4.8415051280740675,-6.497399397452145 c6.381761316831467,-3.285656386326455 10.888657355014814,-3.098619115246154 19.54241129110057,0.8107624197043105 c9.363162419898561,4.2299198228929695 10.077098515122305,4.115746196538569 10.077098515122305,-1.6121390139863019 c0,-6.078989179941375 -3.847539368187376,-8.29095653703565 -16.39100768286379,-9.423368724008789 c-11.68533089711793,-1.0549173783875434 -19.973030551732872,1.5444005239317982 -25.40083034648664,7.966528071450999 c-8.86301641417497,10.486683946195253 -3.3328801971191266,24.02227918220924 11.242741376179989,27.517511170399857 c20.650435645298483,4.9520726407484075 24.88952036742101,8.164433140388724 20.1922785837558,15.301674136696622 c-3.76449181093739,5.7200431063891175 -12.144418289772446,7.089138641018512 -22.076013019003437,3.6066886650806613 c-14.711635981849689,-5.158560800039436 -13.813432304408094,-5.220124404947677 -13.225587085875329,0.9056086555509085 c0.4484195959054529,4.6725973390285525 1.4228484024435661,5.834525477000829 6.274401106525473,7.481676089766441 c8.86252023758199,3.008959782922418 22.818975444916497,2.503483684849342 30.830490803464087,-1.1166662298501717 zm-329.4926533124771,-29.32792574643266 c0,-19.538262835547556 0.625219720398963,-31.329947008553994 1.6961238632345783,-31.9888690025117 c0.987701530400322,-0.6076086983922636 5.810773698045191,7.584673174006105 11.547524050625215,19.614584415955363 c12.898743159664743,27.048405145838267 13.516055065613088,27.039575060079112 26.835258270168875,-0.3840778560975489 c5.346215958453073,-11.00753550828252 10.314810518611491,-20.013728991809796 11.041324690467272,-20.013728991809796 c0.7265079696483675,0 1.5214821069205287,14.152528010977107 1.7666057482673516,31.450110273500268 l0.4456906246440639,31.450110273500268 l5.333253344961476,0.5118979786251899 l5.333253344961476,0.5118979786251899 v-41.76470017066917 v-41.76470017066917 H76.50746553774337 c-3.9509673789940063,0 -7.912652172396374,0.9190081563182989 -8.803748120143538,2.042219764423508 c-0.8910959477471639,1.1232116081052104 -5.549164589396617,10.680760586342291 -10.351273295988092,21.23901145138273 c-4.802102504384062,10.558250865040437 -9.327313661055774,19.196853435810684 -10.056017212128078,19.196853435810684 c-0.7287097532797162,0 -6.1354158406244315,-9.557610727088546 -12.01490999679732,-21.23907320023419 l-10.689988247185719,-21.23901145138273 H17.218766243925586 H9.84600382235044 v41.661209095617814 v41.66114734676634 h4.923002133470992 h4.923002133470992 zm234.66310376285307,7.426719611964701 c0.8071738792520508,-22.333015852746115 0.8922805693629028,-22.754945754790253 5.2398418991256275,-25.981508490266968 c4.945578168451572,-3.67035173093863 18.039988567557877,-4.761515685134736 21.060959753915107,-1.7550876051222857 c3.222108772736396,3.2066796053057534 4.798709896929563,13.91738838460742 4.8390862671832915,32.87521201640627 l0.03721324447348153,18.379916130960112 h4.923002133470992 h4.923002133470992 v-24.587713415052526 c0,-18.7822716470906 -0.5879692626810087,-25.71926111810519 -2.4893179669794234,-29.3802270236215 c-4.830527220954391,-9.300056267637922 -17.41480606040339,-12.253009842283735 -30.316017698618207,-7.113714683900638 c-5.167989326254745,2.05870670776403 -7.1305104022601515,2.2099913938474702 -8.968367109279397,0.6914636386785136 c-1.2939789368318997,-1.0691813630754103 -4.054829544319493,-1.7037125607053798 -6.135254583231713,-1.4100967720005817 c-3.7645228219744515,0.5310401225786047 -3.7847234115161394,0.6699750383695194 -4.233093389762294,29.06746909096329 c-0.24777818611926464,15.693470599227 -0.06729395042287925,29.52768328091426 0.4009106871276416,30.742653682292932 c0.5064102352099604,1.313953810273269 2.6836579340347697,1.9991808149540564 5.373505671066958,1.6911157950070042 l4.52208524413594,-0.5180728637714517 z" id="path3726" inkscape:connector-curvature="0" stroke-width="0"/>
    </g>
  </g></g></svg>